<svg preserveAspectRatio="none" width="100%" height="100%" overflow="visible" style="display: block;" viewBox="0 0 19.997 19.997" fill="none" xmlns="http://www.w3.org/2000/svg">
<g id="Icon" clip-path="url(#clip0_0_14)">
<path id="Vector" d="M12.4981 1.66642H4.99925C4.55729 1.66642 4.13343 1.84199 3.82092 2.1545C3.5084 2.46701 3.33283 2.89087 3.33283 3.33283V16.6642C3.33283 17.1061 3.5084 17.53 3.82092 17.8425C4.13343 18.155 4.55729 18.3306 4.99925 18.3306H14.9978C15.4397 18.3306 15.8636 18.155 16.1761 17.8425C16.4886 17.53 16.6642 17.1061 16.6642 16.6642V5.83246L12.4981 1.66642Z" stroke="#0A0A0A" stroke-width="1.66642" stroke-linecap="round" stroke-linejoin="round"/>
<path id="Vector_2" d="M11.6649 1.66642V4.99925C11.6649 5.44121 11.8405 5.86507 12.153 6.17758C12.4655 6.4901 12.8894 6.66567 13.3313 6.66567H16.6642" stroke="#0A0A0A" stroke-width="1.66642" stroke-linecap="round" stroke-linejoin="round"/>
<path id="Vector_3" d="M8.33208 7.49888H6.66567" stroke="#0A0A0A" stroke-width="1.66642" stroke-linecap="round" stroke-linejoin="round"/>
<path id="Vector_4" d="M13.3313 10.8317H6.66567" stroke="#0A0A0A" stroke-width="1.66642" stroke-linecap="round" stroke-linejoin="round"/>
<path id="Vector_5" d="M13.3313 14.1645H6.66567" stroke="#0A0A0A" stroke-width="1.66642" stroke-linecap="round" stroke-linejoin="round"/>
</g>
<defs>
<clipPath id="clip0_0_14">
<rect width="19.997" height="19.997" fill="white"/>
</clipPath>
</defs>
</svg>
